PathFileType	4	(X/Y/Z)	D:\TRACE\spotREDO_2-26-24\spot_justBody_Motion_2_3-v60.trc
DataRate	CameraRate	NumFrames	NumMarkers	Units	OrigDataRate	OrigDataStartFrame	OrigNumFrames
100.00	100.00	      21	9	mm	100.00	2626	      7000
Frame#	Time	front left toe			Front right toe			aft left toe			aft right toe			Arm			FL body			FR body			AL Body			AR Body			
		X1	Y1	Z1	X2	Y2	Z2	X3	Y3	Z3	X4	Y4	Z4	X5	Y5	Z5	X6	Y6	Z6	X7	Y7	Z7	X8	Y8	Z8	X9	Y9	Z9	

2626	26.250	-166.41286	160.78984	-132.59425	303.33792	29.23362	-106.49852	-144.86279	0.50408	328.96545	322.22137	-0.92791	347.15747	144.12567	828.17041	-263.65793	61.97450	567.01849	-255.63696	217.25880	572.52545	-254.12062	43.03064	529.10406	626.69202	190.91100	530.13007	630.91699	
2627	26.260	-167.46779	159.96513	-135.44020	302.41077	28.85209	-106.76601	-146.08809	1.04437	328.74524	321.16382	-0.64518	347.16205	144.51013	828.42621	-262.64944	62.12311	567.57410	-255.05887	217.61290	572.99579	-253.21991	42.72121	528.99438	627.42188	191.24878	530.03540	632.18036	
2628	26.270	-169.03073	158.85110	-138.28171	301.86533	28.67182	-106.84202	-147.02885	1.43579	328.61670	320.29724	0.08172	347.09528	144.17981	829.05463	-262.07370	62.19682	567.92896	-254.72037	217.92371	573.51392	-252.46579	42.08566	528.94098	627.89728	190.93828	529.97681	632.50580	
2629	26.280	-171.02621	158.61203	-140.93944	300.69009	28.24186	-107.13263	-147.92352	1.69041	328.41815	319.01187	0.35227	346.87689	143.64642	829.53247	-261.43503	62.27819	568.21826	-254.03716	218.18512	573.96228	-251.81018	41.78912	528.67175	628.42297	190.32968	529.94598	632.92291	
2630	26.290	-173.05116	158.76686	-143.07187	299.50989	27.99573	-107.37779	-149.07823	2.16443	328.32220	318.12402	0.93597	346.92014	143.34001	829.80109	-260.72552	62.43094	568.39307	-253.40315	218.32990	573.81073	-250.85272	41.59565	528.39789	628.94171	189.67188	529.83521	633.59668	
2631	26.300	-176.13872	159.78346	-145.93875	298.81049	27.69377	-107.42555	-150.09406	2.65018	328.16769	317.17465	1.20883	346.77518	143.68837	829.93976	-259.69086	62.51444	568.53381	-252.93222	218.25288	574.12714	-250.25758	41.42732	528.18933	629.52368	189.41841	529.66272	634.04126	
2632	26.310	-178.65276	160.69287	-148.41850	297.69360	27.45687	-107.61639	-151.19887	3.19787	327.99521	315.94647	1.43941	346.81030	143.52130	830.29065	-259.29028	62.39177	568.86810	-252.43382	217.97064	574.92828	-250.12318	41.00673	528.01605	630.05768	189.13974	529.53064	634.63684	
2633	26.320	-181.54880	161.19284	-151.05084	296.64270	27.32387	-107.91891	-152.03136	3.72639	327.80807	315.11169	1.93683	346.67450	143.50294	830.53369	-258.68768	62.19605	569.08472	-251.76837	217.86296	575.12354	-249.59584	40.59786	528.05151	630.43274	189.03546	529.40326	635.17108	
2634	26.330	-183.93625	161.07224	-154.14455	295.58206	26.91150	-108.20877	-153.27832	4.34036	327.66534	314.17139	2.27498	346.47260	143.19148	830.83148	-258.04245	61.82462	569.30164	-251.40317	217.50635	575.30695	-249.03685	40.34541	528.12451	630.86743	188.85440	529.42285	635.57043	
2635	26.340	-185.38818	159.25320	-156.86832	294.54822	26.64956	-108.40100	-154.16994	4.81699	327.48450	312.97598	2.75431	346.25165	143.12337	830.94592	-257.42538	61.58258	569.59680	-250.86401	217.26393	575.59247	-248.63951	40.38566	528.16998	631.53064	188.66614	529.49451	636.06256	
2636	26.350	-187.71603	154.98090	-159.72444	293.37259	26.29748	-108.58837	-155.22844	5.42125	327.33142	312.09052	3.09701	346.08652	143.00162	831.22888	-256.82141	61.17627	570.00098	-250.48531	217.06551	575.90363	-248.22101	40.33000	528.25623	632.08429	188.44289	529.46478	636.56256	
2637	26.360	-189.90556	148.59644	-162.76901	292.06589	25.92318	-109.11319	-156.07730	5.94431	327.17191	310.92642	3.54308	346.17307	142.81398	831.48547	-256.27438	60.86514	570.31622	-249.78343	216.86746	576.25574	-247.56131	40.15938	528.33569	632.46417	188.30675	529.61145	637.10773	
2638	26.370	-191.82256	139.78186	-165.82555	291.20993	25.94045	-109.27927	-157.25175	6.60310	326.98038	309.91388	4.07101	345.89084	141.96333	831.87952	-255.80516	60.58311	570.74103	-249.22365	216.30142	576.59698	-247.19241	39.84843	528.43518	632.83154	187.99315	529.75385	637.36932	
2639	26.380	-193.65649	129.50481	-168.22351	290.75974	26.48640	-108.57816	-158.39828	7.32782	326.88495	308.87082	4.41087	345.71271	141.36784	832.61304	-255.36131	60.17732	571.17627	-248.87207	215.84662	577.06592	-246.83765	39.55890	528.59808	633.44818	187.57884	529.84961	637.78363	
2640	26.390	-195.69626	118.44178	-170.22186	289.44284	25.77532	-109.41087	-159.24187	7.80482	326.57703	307.69049	5.15461	345.67172	141.07397	833.05426	-254.92946	59.61731	571.63818	-248.59540	215.59404	577.64783	-246.24988	39.31859	528.63306	633.84985	187.21008	530.00629	638.20044	
2641	26.400	-197.29379	106.97136	-171.37729	287.89453	25.06678	-109.92458	-160.47050	8.17688	326.54675	306.69125	5.70978	345.40192	140.34627	833.42694	-254.35594	59.28690	571.86877	-248.18625	215.33308	577.97485	-245.84430	38.89465	528.69604	634.21881	187.25056	530.09631	638.85852	
2642	26.410	-198.43822	96.15549	-171.83705	287.09824	24.79453	-110.07814	-161.54791	8.73755	326.41971	305.62582	6.14876	345.39752	139.72336	833.71796	-253.79262	58.85289	572.15393	-247.81476	214.78755	578.32233	-245.56660	38.52735	528.82428	634.43939	186.52185	530.16864	638.88348	
2643	26.420	-200.20747	85.56135	-172.39268	285.95291	24.37860	-110.59763	-162.62491	9.31853	326.29300	304.51309	6.74100	345.27206	139.12308	834.04395	-253.48538	58.40778	572.41272	-247.49745	214.10895	578.70667	-245.35291	37.98095	528.83759	634.81738	186.14764	530.34631	639.41180	
2644	26.430	-202.04568	75.41030	-173.00743	284.77844	24.09355	-110.86095	-163.58928	9.98260	325.84082	303.44345	7.05261	345.08749	138.46793	834.30530	-253.26367	57.78253	572.61603	-247.21120	213.62543	579.02155	-245.08533	37.44389	529.04156	635.01941	185.80431	530.55157	639.69330	
2645	26.440	-203.70288	65.59392	-173.97668	283.83716	24.03718	-110.97348	-164.78716	10.54514	325.76819	302.18658	7.80742	344.71890	138.12581	834.52966	-253.14853	57.33228	572.86981	-247.01323	212.81281	579.27728	-244.90337	36.82550	529.32452	635.24384	185.13226	530.82721	639.68591	
2646	26.450	-205.22452	55.90201	-174.82611	282.37924	23.59393	-111.41670	-165.82178	11.07361	325.67612	301.20117	8.26263	344.55426	137.41125	834.73285	-253.03627	56.61760	573.08209	-246.79808	212.34560	579.38129	-244.69907	36.36874	529.57660	635.38690	184.66035	531.10657	639.88727	
